HIERARCHY
ROOT Hips
{
	OFFSET -3.958830 18.904000 13.208200
	CHANNELS 6 Xposition Yposition Zposition Zrotation Yrotation Xrotation 
	JOINT LHipJoint
	{
		OFFSET 0.000000 0.000000 0.000000
		CHANNELS 3 Zrotation Yrotation Xrotation
		JOINT LeftUpLeg
		{
			OFFSET 1.800000 -1.400000 0.085000
			CHANNELS 3 Zrotation Yrotation Xrotation
			JOINT LeftLeg
			{
				OFFSET 2.215000 -6.000000 0.000000
				CHANNELS 3 Zrotation Yrotation Xrotation
				JOINT LeftFoot
				{
					OFFSET 2.500000 -6.900000 0.000000
					CHANNELS 3 Zrotation Yrotation Xrotation
					JOINT LeftToeBase
					{
						OFFSET 0.200000 -0.500000 1.950000
						CHANNELS 3 Zrotation Yrotation Xrotation
						End Site
						{
							OFFSET 0.000000 0.000000 0.000000
						}
					}
				}
			}
		}
	}
	JOINT RHipJoint
	{
		OFFSET 0.000000 0.000000 0.000000
		CHANNELS 3 Zrotation Yrotation Xrotation
		JOINT RightUpLeg
		{
			OFFSET -1.800000 -1.400000 0.085000
			CHANNELS 3 Zrotation Yrotation Xrotation
			JOINT RightLeg
			{
				OFFSET -2.215000 -6.000000 0.000000
				CHANNELS 3 Zrotation Yrotation Xrotation
				JOINT RightFoot
				{
					OFFSET -2.500000 -6.900000 0.000000
					CHANNELS 3 Zrotation Yrotation Xrotation
					JOINT RightToeBase
					{
						OFFSET -0.200000 -0.500000 1.950000
						CHANNELS 3 Zrotation Yrotation Xrotation
						End Site
						{
							OFFSET 0.000000 0.000000 0.000000
						}
					}
				}
			}
		}
	}
	JOINT LowerBack
	{
		OFFSET 0.000000 0.000000 0.000000
		CHANNELS 3 Zrotation Yrotation Xrotation
		JOINT Spine
		{
			OFFSET -0.087000 1.940000 -0.288900
			CHANNELS 3 Zrotation Yrotation Xrotation
			JOINT Spine1
			{
				OFFSET 0.000000 1.950000 0.060000
				CHANNELS 3 Zrotation Yrotation Xrotation
				JOINT Neck
				{
					OFFSET 0.000000 0.000000 0.000000
					CHANNELS 3 Zrotation Yrotation Xrotation
					JOINT Neck1
					{
						OFFSET 0.000000 1.600000 0.340000
						CHANNELS 3 Zrotation Yrotation Xrotation
						JOINT Head
						{
							OFFSET 0.000000 1.667000 -0.240000
							CHANNELS 3 Zrotation Yrotation Xrotation
							End Site
							{
								OFFSET 0.000000 0.000000 0.000000
							}
						}
					}
				}
				JOINT LeftShoulder
				{
					OFFSET 0.000000 0.000000 0.000000
					CHANNELS 3 Zrotation Yrotation Xrotation
					JOINT LeftArm
					{
						OFFSET 2.700000 1.550000 -0.730000
						CHANNELS 3 Zrotation Yrotation Xrotation
						JOINT LeftForeArm
						{
							OFFSET 5.450000 0.000000 0.000000
							CHANNELS 3 Zrotation Yrotation Xrotation
							JOINT LeftHand
							{
								OFFSET 3.450000 0.000000 0.000000
								CHANNELS 3 Zrotation Yrotation Xrotation
								JOINT LeftHandIndex1
								{
									OFFSET 0.750000 0.000000 0.000000
									CHANNELS 3 Zrotation Yrotation Xrotation
									End Site
									{
										OFFSET 0.000000 0.000000 0.000000
									}
								}
							}
						}
					}
				}
				JOINT RightShoulder
				{
					OFFSET 0.000000 0.000000 0.000000
					CHANNELS 3 Zrotation Yrotation Xrotation
					JOINT RightArm
					{
						OFFSET -2.700000 1.550000 -0.730000
						CHANNELS 3 Zrotation Yrotation Xrotation
						JOINT RightForeArm
						{
							OFFSET -5.450000 0.000000 0.000000
							CHANNELS 3 Zrotation Yrotation Xrotation
							JOINT RightHand
							{
								OFFSET -3.450000 0.000000 0.000000
								CHANNELS 3 Zrotation Yrotation Xrotation
								JOINT RightHandIndex1
								{
									OFFSET -0.750000 0.000000 0.000000
									CHANNELS 3 Zrotation Yrotation Xrotation
									End Site
									{
										OFFSET 0.000000 0.000000 0.000000
									}
								}
							}
						}
					}
				}
			}
		}
	}
}
MOTION
Frames: 13
Frame Time: 0.016667
0.212570 17.074750 -1.139540 -3.871807 -1.358435 3.848069 -15.152402 14.100139 3.520954 4.240381 -2.213780 -15.527886 -11.427292 8.367399 19.830957 -0.179645 4.991842 2.880820 -0.163480 -0.588970 0.014550 17.950585 -10.818767 3.161055 -1.617809 1.952975 -12.967532 12.055697 -7.419692 19.191231 -0.323877 -3.628091 3.203382 -0.397000 0.137120 0.071890 -3.076948 -3.094718 -8.596913 8.195382 0.184271 8.204285 -1.983493 1.898682 -13.608645 3.488098 -2.754128 -17.571868 -11.611524 2.859313 49.228245 1.457090 -1.653360 -3.399490 -8.295070 -15.683209 6.057843 26.452321 3.722733 0.143325 17.717370 -3.433647 -0.215917 -3.859870 2.314007 0.804100 -0.098160 0.056540 -0.045050 3.124668 19.869115 11.825159 -25.025327 -5.425456 -2.106717 -11.224071 -1.466846 0.879451 2.661990 -0.699889 -0.332030 0.204590 0.257870 -0.269650 
0.215830 17.027980 -1.150750 -4.063461 -1.514086 3.130591 -15.145900 14.049354 3.546984 5.372450 -2.373736 -16.067409 -12.545368 9.321143 22.002363 -0.092027 5.481862 2.702312 -0.166210 -0.584850 0.001210 17.968618 -10.757675 3.126868 -2.239270 2.277149 -13.373059 13.039749 -8.173466 21.384743 -0.369758 -3.955654 3.083648 -0.392740 0.156090 0.077300 -3.114111 -3.132650 -8.593059 8.666552 -0.035619 9.341286 -2.361783 1.859109 -12.950796 3.418928 -2.963978 -17.183837 -11.708535 2.756276 47.665799 1.348410 -1.566000 -3.788840 -9.069465 -15.404593 5.869853 25.985186 4.483695 0.210744 18.405876 -3.992884 -0.221122 -3.863469 2.346105 0.784560 -0.084330 0.044770 -0.037290 3.921254 19.703494 11.731545 -24.384833 -5.426832 -2.168003 -12.288375 -1.368447 0.923835 2.657845 -0.730347 -0.329420 0.207920 0.260090 -0.258820 
0.217780 16.977860 -1.159780 -4.159581 -1.545406 2.508183 -15.151603 13.971336 3.584614 6.382730 -2.550934 -16.613349 -13.590833 10.256280 23.989751 0.004310 5.959883 2.534376 -0.167000 -0.576650 -0.009190 17.979555 -10.690952 3.096515 -2.928278 2.600480 -13.839882 14.004705 -8.964804 23.508038 -0.422562 -4.307810 2.958814 -0.387540 0.173260 0.081240 -3.126344 -3.138018 -8.600614 8.796382 -0.224285 10.300833 -2.513697 1.779399 -12.241501 3.355858 -3.014532 -16.832910 -11.430765 2.533639 46.123138 1.046730 -1.380720 -3.981320 -9.782537 -15.217864 5.764613 25.405005 5.262743 0.253425 19.264655 -4.508154 -0.224048 -3.870540 2.378674 0.760330 -0.068160 0.033520 -0.027060 4.644955 19.493166 11.618448 -23.734412 -5.474602 -2.204267 -13.086099 -1.143345 0.932521 2.653232 -0.762558 -0.324670 0.209850 0.255920 -0.247790 
0.219650 16.927250 -1.167320 -4.228919 -1.533705 1.888169 -15.165268 13.880466 3.634826 7.388949 -2.731945 -17.125774 -14.637778 11.240584 25.938225 0.106069 6.459883 2.356970 -0.172310 -0.564460 -0.029780 17.984676 -10.608157 3.076411 -3.714052 2.913910 -14.231331 15.150009 -9.835038 25.454848 -0.481012 -4.694074 2.821815 -0.377470 0.192620 0.079840 -3.120473 -3.148350 -8.627035 8.807030 -0.365650 11.296837 -2.545141 1.748645 -11.743156 3.292062 -3.112779 -16.521490 -11.280790 2.348834 44.716304 0.895340 -1.333880 -4.165230 -10.373860 -14.967464 5.635809 24.648285 5.819454 0.277054 20.134528 -5.192325 -0.246826 -3.879310 2.409320 0.730090 -0.050940 0.018410 -0.019810 5.299363 19.290945 11.522686 -23.128853 -5.639984 -2.188835 -13.659198 -0.799092 0.911374 2.645516 -0.790231 -0.320930 0.215050 0.257570 -0.233130 
0.223650 16.876040 -1.175390 -4.283656 -1.556497 1.254568 -15.180291 13.779372 3.693413 8.331133 -2.909055 -17.545303 -15.675984 12.218961 27.719324 0.197584 6.961884 2.177172 -0.165820 -0.551830 -0.036460 17.990615 -10.519854 3.060449 -4.511205 3.201677 -14.517882 16.250231 -10.696178 27.179526 -0.545489 -5.078156 2.682418 -0.363010 0.203860 0.086070 -3.113328 -3.153011 -8.662241 8.820158 -0.487993 12.287670 -2.596332 1.742271 -11.247993 3.230865 -3.138030 -16.222390 -11.029063 2.223224 43.633636 0.778800 -1.252940 -4.424230 -10.994796 -14.759483 5.508289 23.981286 6.305096 0.295887 21.003238 -5.747190 -0.296746 -3.889249 2.444258 0.711170 -0.036550 0.006200 -0.014520 5.963363 19.080683 11.406922 -22.539253 -5.696275 -2.215248 -14.302983 -0.595307 0.892480 2.632815 -0.823454 -0.318180 0.213200 0.258380 -0.228650 
0.227050 16.823120 -1.181990 -4.221653 -1.478353 0.559001 -15.207151 13.671630 3.747640 9.125099 -3.087534 -17.818624 -16.651525 13.169410 29.379031 0.291321 7.446918 2.005247 -0.155810 -0.529510 -0.047130 17.988797 -10.425475 3.040754 -5.458353 3.418713 -14.669583 17.448296 -11.615797 28.725816 -0.616849 -5.486580 2.529744 -0.342210 0.218290 0.097610 -3.080513 -3.161906 -8.686563 8.517352 -0.571436 13.226829 -2.337999 1.685369 -10.523201 3.138468 -3.233942 -15.821985 -10.846142 2.170593 42.307576 0.743000 -1.148490 -4.818130 -11.624928 -14.518609 5.376187 23.248502 6.613283 0.250208 21.931284 -5.984450 -0.359258 -3.906982 2.489906 0.685530 -0.019160 -0.006500 -0.008380 6.723780 18.867116 11.174540 -22.331031 -5.714783 -2.246640 -14.854357 -0.437685 0.843029 2.618272 -0.867022 -0.310730 0.208080 0.260050 -0.218860 
0.231260 16.771750 -1.186820 -4.147926 -1.400821 -0.167856 -15.232901 13.573570 3.794964 9.839542 -3.246746 -17.955328 -17.482941 14.043096 30.885382 0.366669 7.896197 1.844311 -0.126030 -0.498460 -0.040300 17.986776 -10.336489 3.024682 -6.347854 3.595686 -14.677065 18.542236 -12.496535 30.104761 -0.691140 -5.880752 2.382175 -0.312140 0.222120 0.112860 -3.048307 -3.175262 -8.707070 8.232529 -0.613838 14.187942 -2.126269 1.673031 -9.881442 3.046700 -3.348858 -15.395378 -10.721753 2.174732 41.078600 0.817470 -1.079070 -5.344430 -12.290793 -14.250052 5.172651 22.622521 6.575947 0.168600 22.654813 -6.025314 -0.438217 -3.920111 2.542484 0.669220 -0.006410 -0.019110 -0.001290 7.533541 18.644705 10.937941 -22.144660 -5.854574 -2.246781 -15.454458 -0.162946 0.780657 2.593799 -0.922774 -0.303110 0.195100 0.254970 -0.219770 
0.235050 16.722060 -1.190230 -4.055363 -1.299760 -0.857868 -15.256063 13.483088 3.843286 10.456670 -3.401708 -18.084811 -18.187921 14.865086 32.317523 0.456205 8.306487 1.702512 -0.098030 -0.463550 -0.031020 17.983839 -10.258933 3.013988 -7.151588 3.739179 -14.659983 19.476653 -13.308449 31.342975 -0.767253 -6.237139 2.247326 -0.288000 0.224140 0.132860 -3.017936 -3.179314 -8.736432 7.949268 -0.638535 15.031957 -1.995413 1.672744 -9.330521 2.995832 -3.299094 -15.100602 -10.386651 2.115244 40.341397 0.611280 -0.925410 -5.575970 -12.884000 -14.102499 5.020348 22.101309 6.485588 0.068077 23.014138 -6.051680 -0.503545 -3.933509 2.587551 0.646620 0.005500 -0.020520 0.009130 8.179555 18.439655 10.805654 -21.634922 -5.903950 -2.268177 -16.087312 0.003393 0.727466 2.584286 -0.971778 -0.285310 0.181650 0.244350 -0.212680 
0.240340 16.675710 -1.194990 -3.988235 -1.289480 -1.551474 -15.274605 13.397922 3.892512 11.030256 -3.536692 -18.190390 -18.834496 15.670005 33.688455 0.549435 8.686549 1.573564 -0.068330 -0.419260 -0.018750 17.982688 -10.184707 3.012318 -7.907957 3.886202 -14.611423 20.390909 -14.091676 32.462447 -0.846583 -6.569756 2.124508 -0.262200 0.218090 0.145530 -2.994858 -3.179817 -8.776136 7.809103 -0.649682 15.932393 -2.030288 1.732098 -8.937748 3.007792 -3.154288 -14.896851 -9.957608 2.004087 39.986894 0.230650 -0.712660 -5.898710 -13.449117 -13.969249 4.876066 21.476137 6.330610 -0.059830 23.375393 -6.112219 -0.559017 -3.938166 2.620454 0.625830 0.011370 -0.013960 0.020420 8.662402 18.230485 10.750602 -20.837655 -5.822229 -2.330131 -16.764509 -0.024181 0.685725 2.584051 -1.011788 -0.266010 0.172710 0.227190 -0.204540 
0.245990 16.632190 -1.200960 -4.018901 -1.294883 -2.252050 -15.294325 13.334160 3.939138 11.576508 -3.651586 -18.250827 -19.372731 16.403828 34.935861 0.629157 9.032761 1.461862 -0.039850 -0.379030 -0.006810 17.977867 -10.105956 3.016798 -8.500709 4.036386 -14.499519 21.234615 -14.828416 33.478971 -0.919202 -6.877519 2.024903 -0.236740 0.218250 0.149310 -2.964561 -3.216991 -8.820267 7.801506 -0.689186 16.932191 -2.038669 1.821209 -8.719128 3.061585 -3.078275 -14.787657 -9.703660 1.974115 39.776793 -0.121560 -0.528750 -6.058110 -13.943027 -13.800116 4.753607 20.576670 6.217244 -0.185200 24.047961 -6.353808 -0.635167 -3.943087 2.639198 0.609140 0.020980 -0.014600 0.032930 9.022468 18.088186 10.768224 -19.940120 -5.810597 -2.383998 -17.426574 0.043139 0.634985 2.576043 -1.044073 -0.255360 0.173550 0.210290 -0.200140 
0.250110 16.591100 -1.206970 -4.035189 -1.325861 -3.012722 -15.319979 13.281289 3.995473 12.170063 -3.746273 -18.228977 -20.029888 17.188337 36.088282 0.719248 9.382280 1.349119 -0.010420 -0.335790 0.008520 17.965723 -10.025410 3.015578 -8.981992 4.178393 -14.283846 21.903935 -15.498662 34.493841 -0.991584 -7.161241 1.928296 -0.210340 0.211980 0.154580 -2.914874 -3.277440 -8.870384 7.686416 -0.717517 18.067449 -1.951666 1.936415 -8.723917 3.141588 -3.022759 -14.696849 -9.537898 1.966347 39.789418 -0.506670 -0.353590 -6.197830 -14.438725 -13.601257 4.603728 19.718735 6.117915 -0.284439 24.635559 -6.797599 -0.722708 -3.940581 2.659594 0.591280 0.025620 -0.008630 0.044120 9.360893 17.986342 10.792592 -19.106816 -5.754714 -2.430261 -17.962321 0.141612 0.576835 2.573545 -1.074409 -0.240890 0.171280 0.190800 -0.193930 
0.252670 16.551340 -1.211970 -4.021220 -1.365426 -3.800093 -15.350542 13.243959 4.051694 12.718252 -3.815211 -18.098733 -20.708985 17.964759 37.117835 0.806646 9.716307 1.240378 0.010970 -0.302670 0.018990 17.947103 -9.947829 3.008942 -9.363889 4.308728 -13.995694 22.387826 -16.102705 35.493424 -1.058726 -7.420602 1.840510 -0.191580 0.206580 0.163940 -2.848673 -3.358870 -8.919554 7.450479 -0.711710 19.144980 -1.776094 2.053660 -8.650518 3.269640 -2.944884 -14.756916 -9.398596 2.063464 40.126202 -0.924890 -0.099590 -6.193280 -14.691607 -13.434553 4.548161 18.599705 6.055368 -0.405684 25.171520 -7.229851 -0.825369 -3.943550 2.673498 0.577810 0.031600 -0.001350 0.050370 9.386872 17.933397 10.925592 -18.035468 -5.633220 -2.492386 -18.254033 0.124921 0.528233 2.573704 -1.092324 -0.226390 0.166380 0.179330 -0.189040 
0.257070 16.512170 -1.216880 -4.045453 -1.383909 -4.609028 -15.378051 13.210612 4.100173 13.217621 -3.876204 -17.869435 -21.350892 18.711722 38.069138 0.894400 10.028359 1.146574 0.025450 -0.273890 0.028940 17.931126 -9.873020 3.005552 -9.684839 4.425034 -13.655989 22.901690 -16.702734 36.410583 -1.121697 -7.667505 1.763435 -0.173850 0.205610 0.162890 -2.791115 -3.438021 -8.963848 7.327056 -0.743393 20.223444 -1.703767 2.157330 -8.495111 3.426819 -2.845887 -14.885755 -9.210894 2.085482 40.456588 -1.390400 0.104970 -6.074600 -14.805882 -13.273101 4.515577 17.333708 6.009456 -0.561817 25.863889 -7.714496 -0.945783 -3.948065 2.673397 0.560710 0.039070 0.002200 0.055680 9.194609 17.893874 11.141649 -16.658593 -5.513920 -2.573682 -18.632492 -0.009306 0.484538 2.579630 -1.104375 -0.218380 0.172140 0.167270 -0.183430 
